# xmcd
#
# Track frame offsets:
#	150
#	11653
#	28413
#	41230
#	57356
#	72220
#	90815
#	103957
#	116002
#	130315
#	145328
#	161198
#
# Disc length: 2333 seconds
#
# Revision: 0
# Processed by: cddbd v1.5.2PL0 Copyright (c) Steve Scherf et al.
# Submitted via: EasyCDDAExtractor 11.1.0.1
#
DISCID=af091b0c
DTITLE=David Crawford - Coast n' country
DYEAR=1900
DGENRE=country
TTITLE0=Shagging in Dixieland
TTITLE1=Show me the way
TTITLE2=She'd water-ski
TTITLE3=Love never knew
TTITLE4=Unlikely to succeed
TTITLE5=In a childhood memory
TTITLE6=I'm still among the living
TTITLE7=We're history
TTITLE8=Fairy taales and wishing wells
TTITLE9=Every time I see that smile
TTITLE10=Your memory against mine
TTITLE11=I'm gonna buy everything you ever wanted
EXTD=
EXTT0=
EXTT1=
EXTT2=
EXTT3=
EXTT4=
EXTT5=
EXTT6=
EXTT7=
EXTT8=
EXTT9=
EXTT10=
EXTT11=
PLAYORDER=
